<?xml version="1.0" encoding="UTF-8" standalone="no"?><svg xmlns="http://www.w3.org/2000/svg" xmlns:xlink="http://www.w3.org/1999/xlink" contentScriptType="application/ecmascript" contentStyleType="text/css" height="411px" preserveAspectRatio="none" style="width:610px;height:411px;" version="1.1" viewBox="0 0 610 411" width="610px" zoomAndPan="magnify"><defs><filter height="300%" id="fzjjgp3qtivy" width="300%" x="-1" y="-1"><feGaussianBlur result="blurOut" stdDeviation="2.0"/><feColorMatrix in="blurOut" result="blurOut2" type="matrix" values="0 0 0 0 0 0 0 0 0 0 0 0 0 0 0 0 0 0 .4 0"/><feOffset dx="4.0" dy="4.0" in="blurOut2" result="blurOut3"/><feBlend in="SourceGraphic" in2="blurOut3" mode="normal"/></filter></defs><g><line style="stroke: #A80036; stroke-width: 1.0; stroke-dasharray: 5.0,5.0;" x1="25" x2="25" y1="87.6094" y2="322.4219"/><line style="stroke: #A80036; stroke-width: 1.0; stroke-dasharray: 5.0,5.0;" x1="124.5" x2="124.5" y1="87.6094" y2="322.4219"/><line style="stroke: #A80036; stroke-width: 1.0; stroke-dasharray: 5.0,5.0;" x1="264" x2="264" y1="87.6094" y2="322.4219"/><line style="stroke: #A80036; stroke-width: 1.0; stroke-dasharray: 5.0,5.0;" x1="447.5" x2="447.5" y1="87.6094" y2="322.4219"/><line style="stroke: #A80036; stroke-width: 1.0; stroke-dasharray: 5.0,5.0;" x1="570" x2="570" y1="87.6094" y2="322.4219"/><text fill="#000000" font-family="sans-serif" font-size="14" lengthAdjust="spacingAndGlyphs" textLength="29" x="8" y="84.5332">User</text><ellipse cx="25.5" cy="13" fill="#FEFECE" filter="url(#fzjjgp3qtivy)" rx="8" ry="8" style="stroke: #A80036; stroke-width: 2.0;"/><path d="M25.5,21 L25.5,48 M12.5,29 L38.5,29 M25.5,48 L12.5,63 M25.5,48 L38.5,63 " fill="none" filter="url(#fzjjgp3qtivy)" style="stroke: #A80036; stroke-width: 2.0;"/><text fill="#000000" font-family="sans-serif" font-size="14" lengthAdjust="spacingAndGlyphs" textLength="29" x="8" y="335.9551">User</text><ellipse cx="25.5" cy="349.0313" fill="#FEFECE" filter="url(#fzjjgp3qtivy)" rx="8" ry="8" style="stroke: #A80036; stroke-width: 2.0;"/><path d="M25.5,357.0313 L25.5,384.0313 M12.5,365.0313 L38.5,365.0313 M25.5,384.0313 L12.5,399.0313 M25.5,384.0313 L38.5,399.0313 " fill="none" filter="url(#fzjjgp3qtivy)" style="stroke: #A80036; stroke-width: 2.0;"/><rect fill="#FEFECE" filter="url(#fzjjgp3qtivy)" height="49.2188" style="stroke: #A80036; stroke-width: 1.5;" width="50" x="97.5" y="33.3906"/><text fill="#000000" font-family="sans-serif" font-size="14" lengthAdjust="spacingAndGlyphs" textLength="36" x="104.5" y="54.9238">Home</text><text fill="#000000" font-family="sans-serif" font-size="14" lengthAdjust="spacingAndGlyphs" textLength="33" x="106" y="72.5332">Page</text><rect fill="#FEFECE" filter="url(#fzjjgp3qtivy)" height="49.2188" style="stroke: #A80036; stroke-width: 1.5;" width="50" x="97.5" y="321.4219"/><text fill="#000000" font-family="sans-serif" font-size="14" lengthAdjust="spacingAndGlyphs" textLength="36" x="104.5" y="342.9551">Home</text><text fill="#000000" font-family="sans-serif" font-size="14" lengthAdjust="spacingAndGlyphs" textLength="33" x="106" y="360.5645">Page</text><rect fill="#FEFECE" filter="url(#fzjjgp3qtivy)" height="49.2188" style="stroke: #A80036; stroke-width: 1.5;" width="59" x="233" y="33.3906"/><text fill="#000000" font-family="sans-serif" font-size="14" lengthAdjust="spacingAndGlyphs" textLength="35" x="245" y="54.9238">Login</text><text fill="#000000" font-family="sans-serif" font-size="14" lengthAdjust="spacingAndGlyphs" textLength="45" x="240" y="72.5332">Screen</text><rect fill="#FEFECE" filter="url(#fzjjgp3qtivy)" height="49.2188" style="stroke: #A80036; stroke-width: 1.5;" width="59" x="233" y="321.4219"/><text fill="#000000" font-family="sans-serif" font-size="14" lengthAdjust="spacingAndGlyphs" textLength="35" x="245" y="342.9551">Login</text><text fill="#000000" font-family="sans-serif" font-size="14" lengthAdjust="spacingAndGlyphs" textLength="45" x="240" y="360.5645">Screen</text><text fill="#000000" font-family="sans-serif" font-size="14" lengthAdjust="spacingAndGlyphs" textLength="29" x="430" y="66.9238">User</text><text fill="#000000" font-family="sans-serif" font-size="14" lengthAdjust="spacingAndGlyphs" textLength="62" x="413.5" y="84.5332">Validation</text><ellipse cx="447.5" cy="36.3906" fill="#FEFECE" filter="url(#fzjjgp3qtivy)" rx="12" ry="12" style="stroke: #A80036; stroke-width: 2.0;"/><polygon fill="#A80036" points="443.5,24.3906,449.5,19.3906,447.5,24.3906,449.5,29.3906,443.5,24.3906" style="stroke: #A80036; stroke-width: 1.0;"/><text fill="#000000" font-family="sans-serif" font-size="14" lengthAdjust="spacingAndGlyphs" textLength="29" x="430" y="335.9551">User</text><text fill="#000000" font-family="sans-serif" font-size="14" lengthAdjust="spacingAndGlyphs" textLength="62" x="413.5" y="353.5645">Validation</text><ellipse cx="447.5" cy="372.6406" fill="#FEFECE" filter="url(#fzjjgp3qtivy)" rx="12" ry="12" style="stroke: #A80036; stroke-width: 2.0;"/><polygon fill="#A80036" points="443.5,360.6406,449.5,355.6406,447.5,360.6406,449.5,365.6406,443.5,360.6406" style="stroke: #A80036; stroke-width: 1.0;"/><text fill="#000000" font-family="sans-serif" font-size="14" lengthAdjust="spacingAndGlyphs" textLength="61" x="537" y="84.5332">Database</text><path d="M552.5,34 C552.5,24 570.5,24 570.5,24 C570.5,24 588.5,24 588.5,34 L588.5,60 C588.5,70 570.5,70 570.5,70 C570.5,70 552.5,70 552.5,60 L552.5,34 " fill="#FEFECE" filter="url(#fzjjgp3qtivy)" style="stroke: #000000; stroke-width: 1.5;"/><path d="M552.5,34 C552.5,44 570.5,44 570.5,44 C570.5,44 588.5,44 588.5,34 " fill="none" style="stroke: #000000; stroke-width: 1.5;"/><text fill="#000000" font-family="sans-serif" font-size="14" lengthAdjust="spacingAndGlyphs" textLength="61" x="537" y="335.9551">Database</text><path d="M552.5,349.0313 C552.5,339.0313 570.5,339.0313 570.5,339.0313 C570.5,339.0313 588.5,339.0313 588.5,349.0313 L588.5,375.0313 C588.5,385.0313 570.5,385.0313 570.5,385.0313 C570.5,385.0313 552.5,385.0313 552.5,375.0313 L552.5,349.0313 " fill="#FEFECE" filter="url(#fzjjgp3qtivy)" style="stroke: #000000; stroke-width: 1.5;"/><path d="M552.5,349.0313 C552.5,359.0313 570.5,359.0313 570.5,359.0313 C570.5,359.0313 588.5,359.0313 588.5,349.0313 " fill="none" style="stroke: #000000; stroke-width: 1.5;"/><polygon fill="#A80036" points="112.5,115.9609,122.5,119.9609,112.5,123.9609,116.5,119.9609" style="stroke: #A80036; stroke-width: 1.0;"/><line style="stroke: #A80036; stroke-width: 1.0;" x1="25.5" x2="118.5" y1="119.9609" y2="119.9609"/><text fill="#000000" font-family="sans-serif" font-size="13" lengthAdjust="spacingAndGlyphs" textLength="75" x="32.5" y="115.1045">open the app</text><polygon fill="#A80036" points="252.5,146.3125,262.5,150.3125,252.5,154.3125,256.5,150.3125" style="stroke: #A80036; stroke-width: 1.0;"/><line style="stroke: #A80036; stroke-width: 1.0;" x1="124.5" x2="258.5" y1="150.3125" y2="150.3125"/><text fill="#000000" font-family="sans-serif" font-size="13" lengthAdjust="spacingAndGlyphs" textLength="116" x="131.5" y="145.4561">click on login button</text><polygon fill="#A80036" points="435.5,176.6641,445.5,180.6641,435.5,184.6641,439.5,180.6641" style="stroke: #A80036; stroke-width: 1.0;"/><line style="stroke: #A80036; stroke-width: 1.0;" x1="264.5" x2="441.5" y1="180.6641" y2="180.6641"/><text fill="#000000" font-family="sans-serif" font-size="13" lengthAdjust="spacingAndGlyphs" textLength="159" x="271.5" y="175.8076">Login(username, password)</text><polygon fill="#A80036" points="558.5,223.3672,568.5,227.3672,558.5,231.3672,562.5,227.3672" style="stroke: #A80036; stroke-width: 1.0;"/><line style="stroke: #A80036; stroke-width: 1.0;" x1="447.5" x2="564.5" y1="227.3672" y2="227.3672"/><text fill="#000000" font-family="sans-serif" font-size="13" lengthAdjust="spacingAndGlyphs" textLength="96" x="454.5" y="206.1592">username: found</text><text fill="#000000" font-family="sans-serif" font-size="13" lengthAdjust="spacingAndGlyphs" textLength="99" x="454.5" y="222.5107">password: match</text><polygon fill="#A80036" points="275.5,253.7188,265.5,257.7188,275.5,261.7188,271.5,257.7188" style="stroke: #A80036; stroke-width: 1.0;"/><line style="stroke: #A80036; stroke-width: 1.0; stroke-dasharray: 2.0,2.0;" x1="269.5" x2="446.5" y1="257.7188" y2="257.7188"/><text fill="#000000" font-family="sans-serif" font-size="13" lengthAdjust="spacingAndGlyphs" textLength="155" x="281.5" y="252.8623">validation failed: show error</text><polygon fill="#A80036" points="135.5,300.4219,125.5,304.4219,135.5,308.4219,131.5,304.4219" style="stroke: #A80036; stroke-width: 1.0;"/><line style="stroke: #A80036; stroke-width: 1.0; stroke-dasharray: 2.0,2.0;" x1="129.5" x2="569.5" y1="304.4219" y2="304.4219"/><text fill="#000000" font-family="sans-serif" font-size="13" lengthAdjust="spacingAndGlyphs" textLength="123" x="141.5" y="283.2139">validation successful:</text><text fill="#000000" font-family="sans-serif" font-size="13" lengthAdjust="spacingAndGlyphs" textLength="87" x="141.5" y="299.5654">user welcomed</text><!--
@startuml Login Sequence Diagram

actor User
participant "Home\nPage"
participant "Login\nScreen"
control "User\nValidation"
database Database

User -> "Home\nPage" : open the app
"Home\nPage" -> "Login\nScreen" : click on login button
"Login\nScreen" -> "User\nValidation" : Login(username, password)
"User\nValidation" -> Database : username: found\npassword: match
"Login\nScreen" <- - "User\nValidation" : validation failed: show error
"Home\nPage" <- - Database : validation successful:\nuser welcomed
@enduml

PlantUML version 1.2019.09(Mon Aug 26 18:19:51 CEST 2019)
(GPL source distribution)
Java Runtime: OpenJDK Runtime Environment
JVM: OpenJDK 64-Bit Server VM
Java Version: 1.8.0-25-microsoft-b00
Operating System: Windows 10
OS Version: 10.0
Default Encoding: Cp1252
Language: it
Country: IT
--></g></svg>