<?xml version="1.0" encoding="UTF-8" standalone="no"?><svg xmlns="http://www.w3.org/2000/svg" xmlns:xlink="http://www.w3.org/1999/xlink" contentScriptType="application/ecmascript" contentStyleType="text/css" height="812px" preserveAspectRatio="none" style="width:878px;height:812px;" version="1.1" viewBox="0 0 878 812" width="878px" zoomAndPan="magnify"><defs><filter height="300%" id="fre3wu4yi88u" width="300%" x="-1" y="-1"><feGaussianBlur result="blurOut" stdDeviation="4.0"/><feColorMatrix in="blurOut" result="blurOut2" type="matrix" values="0 0 0 0 0 0 0 0 0 0 0 0 0 0 0 0 0 0 .4 0"/><feOffset dx="8.0" dy="8.0" in="blurOut2" result="blurOut3"/><feBlend in="SourceGraphic" in2="blurOut3" mode="normal"/></filter></defs><g><!--cluster application--><rect fill="#FFFFFF" filter="url(#fre3wu4yi88u)" height="742" style="stroke: #000000; stroke-width: 3.0;" width="412" x="444" y="48"/><text fill="#000000" font-family="sans-serif" font-size="28" font-weight="bold" lengthAdjust="spacingAndGlyphs" textLength="154" x="573" y="81.0664">application</text><ellipse cx="649.8823" cy="151.9034" fill="#FEFECE" filter="url(#fre3wu4yi88u)" rx="73.8823" ry="30.9034" style="stroke: #A80036; stroke-width: 3.0;"/><text fill="#000000" font-family="sans-serif" font-size="28" lengthAdjust="spacingAndGlyphs" textLength="96" x="601.8823" y="162.5128">register</text><ellipse cx="650.4264" cy="283.9034" fill="#FEFECE" filter="url(#fre3wu4yi88u)" rx="48.4264" ry="30.9034" style="stroke: #A80036; stroke-width: 3.0;"/><text fill="#000000" font-family="sans-serif" font-size="28" lengthAdjust="spacingAndGlyphs" textLength="60" x="620.4264" y="294.5128">login</text><ellipse cx="650.1543" cy="415.9034" fill="#FEFECE" filter="url(#fre3wu4yi88u)" rx="61.1543" ry="30.9034" style="stroke: #A80036; stroke-width: 3.0;"/><text fill="#000000" font-family="sans-serif" font-size="28" lengthAdjust="spacingAndGlyphs" textLength="78" x="611.1543" y="426.5128">logout</text><ellipse cx="649.9949" cy="547.9034" fill="#FEFECE" filter="url(#fre3wu4yi88u)" rx="104.9949" ry="30.9034" style="stroke: #A80036; stroke-width: 3.0;"/><text fill="#000000" font-family="sans-serif" font-size="28" lengthAdjust="spacingAndGlyphs" textLength="140" x="579.9949" y="558.5128">view profile</text><ellipse cx="649.578" cy="703.9828" fill="#FEFECE" filter="url(#fre3wu4yi88u)" rx="173.578" ry="53.9828" style="stroke: #A80036; stroke-width: 3.0;"/><text fill="#000000" font-family="sans-serif" font-size="28" lengthAdjust="spacingAndGlyphs" textLength="206" x="546.578" y="694.3523">view restaurants</text><text fill="#000000" font-family="sans-serif" font-size="28" lengthAdjust="spacingAndGlyphs" textLength="246" x="526.578" y="729.5711">and available menu</text><!--entity generic user--><ellipse cx="91" cy="367" fill="#FEFECE" filter="url(#fre3wu4yi88u)" rx="16" ry="16" style="stroke: #A80036; stroke-width: 4.0;"/><path d="M91,383 L91,437 M65,399 L117,399 M91,437 L65,467 M91,437 L117,467 " fill="none" filter="url(#fre3wu4yi88u)" style="stroke: #A80036; stroke-width: 4.0;"/><text fill="#000000" font-family="sans-serif" font-size="28" lengthAdjust="spacingAndGlyphs" textLength="158" x="12" y="510.0664">generic user</text><!--link generic user to register--><path d="M131.043,346.666 C153.8782,305.134 186.9254,258.2 230,230 C335.924,160.654 487.522,149.214 576.062,149.218 " fill="none" id="generic user-register" style="stroke: #A80036; stroke-width: 2.0;"/><text fill="#000000" font-family="sans-serif" font-size="26" lengthAdjust="spacingAndGlyphs" textLength="178" x="232" y="158.9902">if not registered</text><!--link generic user to login--><path d="M170.4754,410.318 C189.897,404.936 210.6994,399.216 230,394 C366.552,357.096 528.64,314.9 604.624,295.212 " fill="none" id="generic user-login" style="stroke: #A80036; stroke-width: 2.0;"/><text fill="#000000" font-family="sans-serif" font-size="26" lengthAdjust="spacingAndGlyphs" textLength="56" x="293" y="274.9902">if not</text><text fill="#000000" font-family="sans-serif" font-size="26" lengthAdjust="spacingAndGlyphs" textLength="84" x="279" y="307.6934">already</text><text fill="#000000" font-family="sans-serif" font-size="26" lengthAdjust="spacingAndGlyphs" textLength="76" x="283" y="340.3965">logged</text><!--link generic user to logout--><path d="M170.505,435.986 C189.9258,436.822 210.7206,437.578 230,438 C310.87,439.77 331.198,441.758 412,438 C472.836,435.17 542.208,428.26 589.914,422.932 " fill="none" id="generic user-logout" style="stroke: #A80036; stroke-width: 2.0;"/><text fill="#000000" font-family="sans-serif" font-size="26" lengthAdjust="spacingAndGlyphs" textLength="96" x="273" y="430.9902">if logged</text><!--link generic user to view profile--><path d="M170.5838,470.454 C189.6382,478.638 210.2466,486.47 230,492 C335.408,521.512 460.256,535.652 545.892,542.31 " fill="none" id="generic user-view profile" style="stroke: #A80036; stroke-width: 2.0;"/><text fill="#000000" font-family="sans-serif" font-size="26" lengthAdjust="spacingAndGlyphs" textLength="96" x="273" y="484.9902">if logged</text><!--link generic user to view restaurants\nand available menu--><path d="M158.9762,517.28 C179.6904,539.594 204.003,561.882 230,578 C310.846,628.1226 412.882,659.383 495.904,678.2292 " fill="none" id="generic user-view restaurants\nand available menu" style="stroke: #A80036; stroke-width: 2.0;"/><text fill="#000000" font-family="sans-serif" font-size="26" lengthAdjust="spacingAndGlyphs" textLength="134" x="254" y="570.9902">in any case</text><!--
@startuml useraccess
scale 2
left to right direction
skinparam packageStyle rect

actor "generic user"

rectangle "application" {
    (generic user) - - (register) : if not registered
    (generic user) - - (login) : if not\nalready\nlogged
    (generic user) - - (logout) : if logged
    (generic user) - - (view profile) : if logged
    (generic user) - - (view restaurants\nand available menu) : in any case
}

@enduml

PlantUML version 1.2019.09(Mon Aug 26 18:19:51 CEST 2019)
(GPL source distribution)
Java Runtime: OpenJDK Runtime Environment
JVM: OpenJDK 64-Bit Server VM
Java Version: 1.8.0-25-microsoft-b00
Operating System: Windows 10
OS Version: 10.0
Default Encoding: Cp1252
Language: it
Country: IT
--></g></svg>